<svg width="443" height="443" viewBox="0 0 443 443" fill="none" xmlns="http://www.w3.org/2000/svg">
<path d="M221.5 419.927C200.642 419.927 180.707 413.836 165.756 402.576L86.385 343.325C65.3425 327.636 48.9146 294.964 48.9146 268.753V131.423C48.9146 102.998 69.7725 72.7259 96.5371 62.7584L188.644 28.2413C206.918 21.4117 235.713 21.4117 253.987 28.2413L346.278 62.7584C373.043 72.7259 393.901 102.998 393.901 131.423V194.736C393.901 202.303 387.625 208.579 380.057 208.579C372.489 208.579 366.213 202.303 366.213 194.736V131.423C366.213 114.626 352.37 94.6913 336.495 88.6001L244.388 54.083C232.206 49.4684 210.61 49.4684 198.427 54.083L106.32 88.7847C90.4458 94.6913 76.6021 114.626 76.6021 131.608V268.753C76.6021 286.289 88.9691 310.838 102.813 321.175L182.184 380.426C192.336 387.994 206.549 392.24 221.315 392.24C228.883 392.24 235.159 398.515 235.159 406.083C235.159 413.651 229.068 419.927 221.5 419.927Z" fill="#304258"/>
<path d="M295.333 383.01C246.972 383.01 207.656 343.694 207.656 295.333C207.656 246.972 246.972 207.656 295.333 207.656C343.694 207.656 383.01 246.972 383.01 295.333C383.01 343.694 343.694 383.01 295.333 383.01ZM295.333 235.528C262.293 235.528 235.344 262.478 235.344 295.518C235.344 328.558 262.293 355.507 295.333 355.507C328.374 355.507 355.323 328.558 355.323 295.518C355.323 262.478 328.374 235.528 295.333 235.528Z" fill="#304258"/>
<path d="M387.625 406.083C386.333 406.083 385.225 405.899 383.933 405.714C382.826 405.53 381.718 405.16 380.611 404.607C379.503 404.238 378.396 403.684 377.288 402.945C376.365 402.207 375.442 401.469 374.519 400.73C371.197 397.223 369.167 392.424 369.167 387.625C369.167 385.225 369.72 382.826 370.643 380.611C371.566 378.396 372.858 376.365 374.519 374.52C381.349 367.69 393.901 367.69 400.73 374.52C402.392 376.365 403.684 378.396 404.607 380.611C405.529 382.826 406.083 385.225 406.083 387.625C406.083 392.424 404.053 397.223 400.73 400.73C397.223 404.053 392.424 406.083 387.625 406.083Z" fill="#304258"/>
</svg>
